<svg width="22" height="22" viewBox="0 0 22 22" fill="none" xmlns="http://www.w3.org/2000/svg"><path d="M11 22C9.47833 22 8.04833 21.7111 6.71 21.1332C5.37167 20.5561 4.2075 19.7725 3.2175 18.7825C2.2275 17.7925 1.44393 16.6283 0.8668 15.29C0.288933 13.9517 0 12.5217 0 11C0 9.47833 0.288933 8.04833 0.8668 6.71C1.44393 5.37167 2.2275 4.2075 3.2175 3.2175C4.2075 2.2275 5.37167 1.44357 6.71 0.8657C8.04833 0.288567 9.47833 0 11 0C12.5217 0 13.9517 0.288567 15.29 0.8657C16.6283 1.44357 17.7925 2.2275 18.7825 3.2175C19.7725 4.2075 20.5561 5.37167 21.1332 6.71C21.7111 8.04833 22 9.47833 22 11C22 12.5217 21.7111 13.9517 21.1332 15.29C20.5561 16.6283 19.7725 17.7925 18.7825 18.7825C17.7925 19.7725 16.6283 20.5561 15.29 21.1332C13.9517 21.7111 12.5217 22 11 22ZM11 19.8C13.4383 19.8 15.5148 18.9431 17.2293 17.2293C18.9431 15.5148 19.8 13.4383 19.8 11C19.8 8.56167 18.9431 6.48523 17.2293 4.7707C15.5148 3.0569 13.4383 2.2 11 2.2C8.56167 2.2 6.4856 3.0569 4.7718 4.7707C3.05727 6.48523 2.2 8.56167 2.2 11C2.2 13.4383 3.05727 15.5148 4.7718 17.2293C6.4856 18.9431 8.56167 19.8 11 19.8Z" fill="white"/><path d="M7.60185 13.1012L9.70416 11L7.60185 8.89884C7.42987 8.72686 7.33325 8.49361 7.33325 8.25039C7.33325 8.00718 7.42987 7.77392 7.60185 7.60194C7.77383 7.42996 8.00708 7.33334 8.2503 7.33334C8.49352 7.33334 8.72677 7.42996 8.89875 7.60194L10.9999 9.70425L13.1011 7.60194C13.1862 7.51678 13.2873 7.44924 13.3986 7.40315C13.5099 7.35706 13.6291 7.33334 13.7495 7.33334C13.87 7.33334 13.9892 7.35706 14.1005 7.40315C14.2117 7.44924 14.3128 7.51678 14.398 7.60194C14.4831 7.6871 14.5507 7.78819 14.5968 7.89945C14.6429 8.01071 14.6666 8.12996 14.6666 8.25039C14.6666 8.37082 14.6429 8.49007 14.5968 8.60133C14.5507 8.71259 14.4831 8.81369 14.398 8.89884L12.2957 11L14.398 13.1012C14.4831 13.1863 14.5507 13.2874 14.5968 13.3987C14.6429 13.51 14.6666 13.6292 14.6666 13.7496C14.6666 13.8701 14.6429 13.9893 14.5968 14.1006C14.5507 14.2118 14.4831 14.3129 14.398 14.3981C14.3128 14.4832 14.2117 14.5508 14.1005 14.5969C13.9892 14.643 13.87 14.6667 13.7495 14.6667C13.6291 14.6667 13.5099 14.643 13.3986 14.5969C13.2873 14.5508 13.1862 14.4832 13.1011 14.3981L10.9999 12.2958L8.89875 14.3981C8.8136 14.4832 8.7125 14.5508 8.60124 14.5969C8.48998 14.643 8.37073 14.6667 8.2503 14.6667C8.12987 14.6667 8.01062 14.643 7.89936 14.5969C7.7881 14.5508 7.687 14.4832 7.60185 14.3981C7.51669 14.3129 7.44914 14.2118 7.40306 14.1006C7.35697 13.9893 7.33325 13.8701 7.33325 13.7496C7.33325 13.6292 7.35697 13.51 7.40306 13.3987C7.44914 13.2874 7.51669 13.1863 7.60185 13.1012Z" fill="white"/></svg>
