<svg width="63" height="63" viewBox="0 0 63 63" fill="none" xmlns="http://www.w3.org/2000/svg"><path opacity="0.1" fill-rule="evenodd" clip-rule="evenodd" d="M31.5 9.00003C25.5326 9.00003 19.8097 11.3706 15.5901 15.5901C11.3705 19.8097 9 25.5327 9 31.5C9 37.4674 11.3705 43.1904 15.5901 47.4099C19.8097 51.6295 25.5326 54 31.5 54C37.4674 54 43.1903 51.6295 47.4099 47.4099C51.6295 43.1904 54 37.4674 54 31.5C54 25.5327 51.6295 19.8097 47.4099 15.5901C43.1903 11.3706 37.4674 9.00003 31.5 9.00003ZM0 31.5C0 14.103 14.103 3.05176e-05 31.5 3.05176e-05C48.897 3.05176e-05 63 14.103 63 31.5C63 48.897 48.897 63 31.5 63C14.103 63 0 48.897 0 31.5Z" fill="#DF8822"/><path fill-rule="evenodd" clip-rule="evenodd" d="M31.5 9.00004C25.699 8.987 20.1198 11.2275 15.939 15.249C15.0728 16.0499 13.9268 16.4786 12.7477 16.4429C11.5685 16.4071 10.4506 15.9098 9.63449 15.0579C8.81842 14.2061 8.36949 13.0678 8.38436 11.8882C8.39923 10.7086 8.87671 9.58206 9.71399 8.75104C15.5698 3.12441 23.3791 -0.012454 31.5 3.71626e-05C32.6935 3.71626e-05 33.8381 0.474143 34.682 1.31806C35.5259 2.16197 36 3.30656 36 4.50004C36 5.69351 35.5259 6.83811 34.682 7.68202C33.8381 8.52593 32.6935 9.00004 31.5 9.00004Z" fill="#DF8822"/></svg>
