<svg width="21" height="22" viewBox="0 0 21 22" fill="none" xmlns="http://www.w3.org/2000/svg"><path d="M20.8438 14.5C20.8438 14.7404 20.7483 14.9709 20.5783 15.1408C20.4084 15.3108 20.1779 15.4062 19.9375 15.4062H17.2188V17.2188H19.0312C19.2716 17.2188 19.5021 17.3142 19.6721 17.4842C19.842 17.6541 19.9375 17.8846 19.9375 18.125C19.9375 18.3654 19.842 18.5959 19.6721 18.7658C19.5021 18.9358 19.2716 19.0312 19.0312 19.0312H17.2188V20.8438C17.2188 21.0841 17.1233 21.3146 16.9533 21.4846C16.7834 21.6545 16.5529 21.75 16.3125 21.75C16.0721 21.75 15.8416 21.6545 15.6717 21.4846C15.5017 21.3146 15.4062 21.0841 15.4062 20.8438V14.5C15.4062 14.2596 15.5017 14.0291 15.6717 13.8592C15.8416 13.6892 16.0721 13.5938 16.3125 13.5938H19.9375C20.1779 13.5938 20.4084 13.6892 20.5783 13.8592C20.7483 14.0291 20.8438 14.2596 20.8438 14.5ZM5.89062 16.7656C5.89062 17.6069 5.55645 18.4136 4.9616 19.0085C4.36676 19.6033 3.55998 19.9375 2.71875 19.9375H1.8125V20.8438C1.8125 21.0841 1.71702 21.3146 1.54707 21.4846C1.37711 21.6545 1.1466 21.75 0.90625 21.75C0.665898 21.75 0.435389 21.6545 0.265435 21.4846C0.0954798 21.3146 0 21.0841 0 20.8438V14.5C0 14.2596 0.0954798 14.0291 0.265435 13.8592C0.435389 13.6892 0.665898 13.5938 0.90625 13.5938H2.71875C3.55998 13.5938 4.36676 13.9279 4.9616 14.5228C5.55645 15.1176 5.89062 15.9244 5.89062 16.7656ZM4.07812 16.7656C4.07812 16.4051 3.93491 16.0593 3.67997 15.8044C3.42504 15.5495 3.07928 15.4062 2.71875 15.4062H1.8125V18.125H2.71875C3.07928 18.125 3.42504 17.9818 3.67997 17.7268C3.93491 17.4719 4.07812 17.1262 4.07812 16.7656ZM14.0469 17.6719C14.0469 18.7535 13.6172 19.7907 12.8524 20.5555C12.0876 21.3203 11.0503 21.75 9.96875 21.75H8.15625C7.9159 21.75 7.68539 21.6545 7.51543 21.4846C7.34548 21.3146 7.25 21.0841 7.25 20.8438V14.5C7.25 14.2596 7.34548 14.0291 7.51543 13.8592C7.68539 13.6892 7.9159 13.5938 8.15625 13.5938H9.96875C11.0503 13.5938 12.0876 14.0234 12.8524 14.7882C13.6172 15.553 14.0469 16.5903 14.0469 17.6719ZM12.2344 17.6719C12.2344 17.071 11.9957 16.4947 11.5708 16.0698C11.1459 15.6449 10.5696 15.4062 9.96875 15.4062H9.0625V19.9375H9.96875C10.5696 19.9375 11.1459 19.6988 11.5708 19.2739C11.9957 18.849 12.2344 18.2728 12.2344 17.6719ZM0 9.96875V1.8125C0 1.3318 0.190959 0.870779 0.530869 0.530869C0.870779 0.190959 1.3318 2.80211e-07 1.8125 2.80211e-07H12.6875C12.8065 -9.33309e-05 12.9244 0.0232687 13.0345 0.0687517C13.1445 0.114235 13.2444 0.180947 13.3287 0.265078L19.6724 6.60883C19.7566 6.69305 19.8233 6.79303 19.8687 6.90304C19.9142 7.01306 19.9376 7.13095 19.9375 7.25V9.96875C19.9375 10.2091 19.842 10.4396 19.6721 10.6096C19.5021 10.7795 19.2716 10.875 19.0312 10.875C18.7909 10.875 18.5604 10.7795 18.3904 10.6096C18.2205 10.4396 18.125 10.2091 18.125 9.96875V8.15625H12.6875C12.4471 8.15625 12.2166 8.06077 12.0467 7.89082C11.8767 7.72086 11.7812 7.49035 11.7812 7.25V1.8125H1.8125V9.96875C1.8125 10.2091 1.71702 10.4396 1.54707 10.6096C1.37711 10.7795 1.1466 10.875 0.90625 10.875C0.665898 10.875 0.435389 10.7795 0.265435 10.6096C0.0954798 10.4396 0 10.2091 0 9.96875ZM13.5938 6.34375H16.8438L13.5938 3.09371V6.34375Z" fill="#DF8822"/></svg>
