<svg width="23" height="22" viewBox="0 0 23 22" fill="none" xmlns="http://www.w3.org/2000/svg"><path d="M2.8125 13.5938H0.9375C0.68886 13.5938 0.450403 13.6892 0.274588 13.8592C0.0987722 14.0291 0 14.2596 0 14.5V20.8438C0 21.0841 0.0987722 21.3146 0.274588 21.4846C0.450403 21.6545 0.68886 21.75 0.9375 21.75C1.18614 21.75 1.4246 21.6545 1.60041 21.4846C1.77623 21.3146 1.875 21.0841 1.875 20.8438V19.9375H2.8125C3.68274 19.9375 4.51734 19.6033 5.13269 19.0085C5.74805 18.4136 6.09375 17.6069 6.09375 16.7656C6.09375 15.9244 5.74805 15.1176 5.13269 14.5228C4.51734 13.9279 3.68274 13.5938 2.8125 13.5938ZM2.8125 18.125H1.875V15.4062H2.8125C3.18546 15.4062 3.54315 15.5495 3.80687 15.8044C4.07059 16.0593 4.21875 16.4051 4.21875 16.7656C4.21875 17.1262 4.07059 17.4719 3.80687 17.7268C3.54315 17.9818 3.18546 18.125 2.8125 18.125ZM22.0312 20.0361C22.0312 20.2695 21.938 20.4939 21.7711 20.6625C21.4447 21.0022 21.0499 21.2739 20.611 21.4609C20.1721 21.6479 19.6984 21.7462 19.2188 21.75C17.1504 21.75 15.4688 19.9205 15.4688 17.6719C15.4688 15.4232 17.1504 13.5938 19.2188 13.5938C19.9078 13.596 20.5805 13.7976 21.15 14.1726C21.3562 14.3078 21.4984 14.5167 21.5453 14.7532C21.5923 14.9898 21.5401 15.2347 21.4002 15.434C21.2603 15.6333 21.0443 15.7708 20.7996 15.8162C20.5549 15.8615 20.3015 15.8111 20.0953 15.6759C19.8381 15.5022 19.5324 15.4082 19.2188 15.4062C18.1852 15.4062 17.3438 16.4258 17.3438 17.6719C17.3438 18.918 18.1852 19.9375 19.2188 19.9375C19.5572 19.9339 19.8856 19.8259 20.1562 19.6294V19.0312C19.9076 19.0312 19.6692 18.9358 19.4933 18.7658C19.3175 18.5959 19.2188 18.3654 19.2188 18.125C19.2188 17.8846 19.3175 17.6541 19.4933 17.4842C19.6692 17.3142 19.9076 17.2188 20.1562 17.2188H21.0938C21.3424 17.2188 21.5808 17.3142 21.7567 17.4842C21.9325 17.6541 22.0312 17.8846 22.0312 18.125V20.0361ZM14.0625 14.5V20.8438C14.0625 21.0358 13.9994 21.2229 13.8823 21.3781C13.7652 21.5332 13.6002 21.6484 13.4109 21.707C13.3185 21.7357 13.2221 21.7502 13.125 21.75C12.9758 21.75 12.8287 21.7156 12.696 21.6496C12.5633 21.5836 12.4488 21.4879 12.3621 21.3705L9.375 17.332V20.8438C9.375 21.0841 9.27623 21.3146 9.10041 21.4846C8.9246 21.6545 8.68614 21.75 8.4375 21.75C8.18886 21.75 7.9504 21.6545 7.77459 21.4846C7.59877 21.3146 7.5 21.0841 7.5 20.8438V14.5C7.49999 14.308 7.56308 14.1209 7.68015 13.9658C7.79722 13.8107 7.96224 13.6955 8.15139 13.637C8.34055 13.5784 8.54407 13.5793 8.73261 13.6398C8.92114 13.7002 9.08494 13.817 9.20039 13.9732L12.1875 18.0117V14.5C12.1875 14.2596 12.2863 14.0291 12.4621 13.8592C12.6379 13.6892 12.8764 13.5938 13.125 13.5938C13.3736 13.5938 13.6121 13.6892 13.7879 13.8592C13.9637 14.0291 14.0625 14.2596 14.0625 14.5ZM1.40625 10.875C1.65489 10.875 1.89335 10.7795 2.06916 10.6096C2.24498 10.4396 2.34375 10.2091 2.34375 9.96875V1.8125H12.6562V7.25C12.6562 7.49035 12.755 7.72086 12.9308 7.89082C13.1067 8.06077 13.3451 8.15625 13.5938 8.15625H19.2188V9.96875C19.2188 10.2091 19.3175 10.4396 19.4933 10.6096C19.6692 10.7795 19.9076 10.875 20.1562 10.875C20.4049 10.875 20.6433 10.7795 20.8192 10.6096C20.995 10.4396 21.0938 10.2091 21.0938 9.96875V7.25C21.0938 7.13095 21.0697 7.01306 21.0226 6.90304C20.9756 6.79303 20.9066 6.69305 20.8195 6.60883L14.257 0.265078C14.1699 0.180947 14.0665 0.114235 13.9527 0.0687517C13.8389 0.0232687 13.7169 -9.33309e-05 13.5938 2.80211e-07H2.34375C1.84647 2.80211e-07 1.36956 0.190959 1.01792 0.530869C0.666294 0.870779 0.46875 1.3318 0.46875 1.8125V9.96875C0.46875 10.2091 0.567522 10.4396 0.743338 10.6096C0.919153 10.7795 1.15761 10.875 1.40625 10.875ZM14.5312 3.09371L17.8934 6.34375H14.5312V3.09371Z" fill="#DF8822"/></svg>
