<svg width="21" height="22" viewBox="0 0 21 22" fill="none" xmlns="http://www.w3.org/2000/svg"><path d="M5.86622 19.5195C5.8309 19.8661 5.71923 20.2006 5.53922 20.4989C5.35922 20.7972 5.11536 21.0519 4.82517 21.2448C4.23724 21.6367 3.50771 21.75 2.84388 21.75C2.26497 21.7463 1.6888 21.6702 1.1288 21.5234C0.900067 21.4564 0.70693 21.302 0.591225 21.0937C0.475519 20.8853 0.446561 20.6397 0.510621 20.4101C0.574681 20.1806 0.726603 19.9855 0.933481 19.8671C1.14036 19.7488 1.38554 19.7167 1.61591 19.7778C2.11208 19.9137 3.30947 20.0836 3.83056 19.737C3.93025 19.6702 4.03786 19.5648 4.07298 19.2918C4.11263 18.9893 3.99255 18.8273 2.62525 18.432C1.56607 18.1261 -0.206784 17.613 0.0197789 15.8141C0.0550411 15.4743 0.164661 15.1464 0.340859 14.8537C0.517058 14.561 0.755515 14.3107 1.03931 14.1205C2.38056 13.2143 4.51931 13.7455 4.75833 13.8079C4.99087 13.869 5.1896 14.02 5.3108 14.2277C5.432 14.4353 5.46574 14.6826 5.4046 14.9152C5.34346 15.1477 5.19245 15.3464 4.98479 15.4676C4.77712 15.5888 4.52982 15.6226 4.29728 15.5614C3.78978 15.4289 2.57201 15.2714 2.05091 15.6249C1.98261 15.671 1.92637 15.7328 1.88694 15.8051C1.84752 15.8775 1.82605 15.9582 1.82435 16.0406C1.81189 16.1426 1.80849 16.1641 1.95122 16.2559C2.2129 16.4246 2.68076 16.5595 3.13501 16.6909C4.24404 17.0114 6.11997 17.5586 5.86622 19.5195ZM20.3866 7.25V9.96875C20.3866 10.2091 20.2911 10.4396 20.1212 10.6096C19.9512 10.7795 19.7207 10.875 19.4804 10.875C19.24 10.875 19.0095 10.7795 18.8395 10.6096C18.6696 10.4396 18.5741 10.2091 18.5741 9.96875V8.15625H13.1366C12.8963 8.15625 12.6658 8.06077 12.4958 7.89082C12.3258 7.72086 12.2304 7.49035 12.2304 7.25V1.8125H2.26162V9.96875C2.26162 10.2091 2.16614 10.4396 1.99618 10.6096C1.82623 10.7795 1.59572 10.875 1.35536 10.875C1.11501 10.875 0.884505 10.7795 0.71455 10.6096C0.544595 10.4396 0.449115 10.2091 0.449115 9.96875V1.8125C0.449115 1.3318 0.640074 0.870779 0.979984 0.530869C1.31989 0.190959 1.78091 0 2.26162 0H13.1366C13.3766 0.000111243 13.6068 0.0954441 13.7767 0.265078L20.1204 6.60883C20.2047 6.69296 20.2717 6.79289 20.3173 6.90291C20.363 7.01293 20.3866 7.13088 20.3866 7.25ZM14.0429 6.34375H17.2929L14.0429 3.09371V6.34375ZM12.5362 13.647C12.4241 13.6069 12.3052 13.5892 12.1863 13.5951C12.0674 13.6009 11.9508 13.6301 11.8432 13.681C11.7356 13.7319 11.639 13.8036 11.5591 13.8918C11.4792 13.98 11.4174 14.0832 11.3774 14.1953L9.96474 18.1488L8.55212 14.1953C8.51489 14.0797 8.45482 13.9728 8.37547 13.8809C8.29613 13.7891 8.19913 13.714 8.09024 13.6604C7.98134 13.6067 7.86278 13.5754 7.74157 13.5685C7.62037 13.5615 7.499 13.579 7.38467 13.6198C7.27035 13.6606 7.16539 13.724 7.07604 13.8062C6.98668 13.8884 6.91475 13.9877 6.86452 14.0982C6.81429 14.2088 6.78677 14.3283 6.78361 14.4496C6.78044 14.571 6.8017 14.6917 6.84611 14.8047L9.11173 21.1485C9.17455 21.3246 9.2903 21.477 9.44312 21.5847C9.59593 21.6924 9.77833 21.7503 9.96531 21.7503C10.1523 21.7503 10.3347 21.6924 10.4875 21.5847C10.6403 21.477 10.7561 21.3246 10.8189 21.1485L13.0845 14.8047C13.1652 14.5785 13.1528 14.3295 13.05 14.1124C12.9472 13.8953 12.7624 13.7279 12.5362 13.647ZM19.4804 17.2188H18.5741C18.3338 17.2188 18.1033 17.3142 17.9333 17.4842C17.7633 17.6541 17.6679 17.8846 17.6679 18.125C17.6679 18.3654 17.7633 18.5959 17.9333 18.7658C18.1033 18.9358 18.3338 19.0312 18.5741 19.0312V19.6305C18.3131 19.828 17.9952 19.9357 17.6679 19.9375C16.6687 19.9375 15.8554 18.918 15.8554 17.6719C15.8554 16.4258 16.6687 15.4062 17.6679 15.4062C17.973 15.4075 18.2705 15.5015 18.5209 15.6759C18.7201 15.8056 18.9624 15.8518 19.1954 15.8046C19.4284 15.7574 19.6335 15.6205 19.7666 15.4234C19.8996 15.2264 19.9498 14.9849 19.9064 14.7511C19.8631 14.5174 19.7296 14.31 19.5347 14.1737C18.9845 13.7979 18.3342 13.5958 17.6679 13.5938C15.6696 13.5938 14.0429 15.4232 14.0429 17.6719C14.0429 19.9205 15.6696 21.75 17.6679 21.75C18.1315 21.7462 18.5895 21.6479 19.0137 21.4609C19.438 21.2739 19.8196 21.0022 20.1351 20.6625C20.2965 20.4939 20.3866 20.2695 20.3866 20.0361V18.125C20.3866 17.8846 20.2911 17.6541 20.1212 17.4842C19.9512 17.3142 19.7207 17.2188 19.4804 17.2188Z" fill="#DF8822"/></svg>
