<svg width="22" height="22" viewBox="0 0 22 22" fill="none" xmlns="http://www.w3.org/2000/svg"><path d="M11.385 8.085C11.275 7.975 11.1467 7.92 11 7.92C10.8533 7.92 10.725 7.975 10.615 8.085L7.535 11.165C7.35167 11.3483 7.30583 11.55 7.3975 11.77C7.48917 11.99 7.66333 12.1 7.92 12.1L14.08 12.1C14.3367 12.1 14.5108 11.99 14.6025 11.77C14.6942 11.55 14.6483 11.3483 14.465 11.165L11.385 8.085ZM11 -9.61651e-07C12.5217 -8.28622e-07 13.9517 0.288932 15.29 0.8668C16.6283 1.44393 17.7925 2.2275 18.7825 3.2175C19.7725 4.2075 20.5561 5.37167 21.1332 6.71C21.7111 8.04833 22 9.47833 22 11C22 12.5217 21.7111 13.9517 21.1332 15.29C20.5561 16.6283 19.7725 17.7925 18.7825 18.7825C17.7925 19.7725 16.6283 20.5564 15.29 21.1343C13.9517 21.7114 12.5217 22 11 22C9.47833 22 8.04833 21.7114 6.71 21.1343C5.37167 20.5564 4.2075 19.7725 3.2175 18.7825C2.2275 17.7925 1.44393 16.6283 0.866801 15.29C0.288934 13.9517 8.28622e-07 12.5217 9.61651e-07 11C1.09468e-06 9.47833 0.288934 8.04833 0.866802 6.71C1.44393 5.37166 2.2275 4.2075 3.2175 3.2175C4.2075 2.2275 5.37167 1.44393 6.71 0.866799C8.04834 0.288932 9.47834 -1.09468e-06 11 -9.61651e-07ZM11 2.2C8.56167 2.2 6.48523 3.0569 4.7707 4.7707C3.0569 6.48523 2.2 8.56166 2.2 11C2.2 13.4383 3.0569 15.5148 4.7707 17.2293C6.48523 18.9431 8.56167 19.8 11 19.8C13.4383 19.8 15.5144 18.9431 17.2282 17.2293C18.9427 15.5148 19.8 13.4383 19.8 11C19.8 8.56167 18.9427 6.48523 17.2282 4.7707C15.5144 3.0569 13.4383 2.2 11 2.2Z" fill="white"/></svg>
